<?xml version="1.0" encoding="utf-8"?>
<!-- Generator: Adobe Illustrator 24.2.1, SVG Export Plug-In . SVG Version: 6.00 Build 0)  -->
<svg version="1.1" id="Layer_1" xmlns="http://www.w3.org/2000/svg" xmlns:xlink="http://www.w3.org/1999/xlink" x="0px" y="0px"
	 viewBox="0 0 640 480" style="enable-background:new 0 0 640 480;" xml:space="preserve">
<style type="text/css">
	.st0{fill:#FFFFFF;}
</style>
<g>
	<g>
		<g>
			<path class="st0" d="M148,195.4c-5-1.4-9.8-2.2-14.5-2.6c-4.7-0.4-9.4-0.2-14.1,0.5c-9.4,1.4-19.3,4.8-30.1,11.9
				c-2.8,1.9-6.8,4.7-11.2,8.7c-1.1,1-2.2,2.1-3.4,3.2c-1.2,1.1-2.3,2.3-3.5,3.5c-0.7,0.8-1.4,1.5-2.1,2.3c-4,4.5-7.7,9.5-11,14.8
				c-6.5,10.6-11.2,22.8-13.1,35.8c-0.9,6.4-1.2,13.2-0.2,20.2c0.5,3.5,1.4,7,2.6,10.4c1.2,3.4,2.8,6.6,4.6,9.6
				c3.6,6,8.2,11.3,13.2,15.9c2.5,2.3,5.1,4.4,7.9,6.4l2,1.5l1,0.7l1.1,0.7l4.3,2.7c5.8,3.3,11.9,6.4,18.3,8.5l2.4,0.9l2.4,0.7
				l4.8,1.4l4.9,1.1c0.8,0.2,1.6,0.4,2.5,0.5l2.5,0.4c6.6,1.2,13.3,1.7,19.9,1.9l5,0c1.7,0,3.3-0.2,5-0.2c3.3-0.1,6.6-0.6,9.9-1
				c1.6-0.2,3.3-0.5,4.9-0.8l2.5-0.4c0.8-0.2,1.6-0.4,2.4-0.5l4.8-1.1l4.8-1.4l2.4-0.7l2.3-0.8c1.6-0.5,3.1-1.1,4.6-1.6
				c3-1.2,6.1-2.4,9-3.8c6-2.6,11.6-5.8,17.2-9.1c2.7-1.7,5.4-3.4,8-5.3c2.7-1.8,5.2-3.7,7.7-5.6c5-3.9,9.8-7.9,14.3-12.2
				c4.5-4.2,8.8-8.7,12.8-13.2c2-2.3,4-4.6,5.9-6.9c0.9-1.2,1.9-2.3,2.8-3.5c0.9-1.2,1.8-2.4,2.7-3.6l1.3-1.8l0.1-0.1
				c8.6,10.5-11.6-14.4-9.6-11.8l-0.3,0.2l-0.7,0.3c-0.5,0.2-0.9,0.5-1.3,0.7c-1.7,1-3.3,2.2-4.8,3.6c-0.7,0.7-1.4,1.4-2.1,2.1
				c-0.3,0.3-0.8,1-1.2,1.5c-0.4,0.6-0.9,1.1-1.2,1.7c-1.5,2.4-2.6,4.9-3.4,7.4l0,0c-0.7,2.1-0.8,4.2-0.7,6.1
				c0.2,1.9,0.7,3.7,1.8,5.3c1.1,1.7,2.6,3,4.2,3.8c1.6,0.9,3.5,1.3,5.5,1.5c0.3,0,0.5,0,0.8,0l0.8-0.1l1.7-0.2l1.7-0.2
				c0.3,0,0.6-0.1,0.8-0.1l0.9-0.2l3.5-0.9l0.8-0.2l0.5-0.1l0.9-0.3c2.5-0.8,4.9-1.6,7.2-2.5c4.6-1.7,8.9-3.5,13-4.8
				c2.1-0.7,4.1-1.3,6-1.8c2-0.4,3.9-0.8,5.7-0.9c7.4-0.7,15.5,1.3,24.1,3.6c2.1,0.6,4.3,1.2,6.5,1.7c2.2,0.5,4.4,1.1,6.6,1.6
				c2.2,0.5,4.4,1,6.5,1.5c2.2,0.5,4.3,0.9,6.5,1.3c34.4,6.8,66.5,7.5,92.6,5.5c6.5-0.5,12.7-1.1,18.5-1.9c1.4-0.2,2.9-0.4,4.3-0.6
				c1.4-0.2,2.8-0.4,4.4-0.7c1.6-0.3,3.3-0.7,5.2-1.4c1.8-0.7,3.8-1.8,5.5-3.3c0.4-0.4,0.8-0.8,1.3-1.2c0.5-0.5,1-1.1,1.3-1.7
				c0.8-1.1,1.3-2.3,1.7-3.5c0.8-2.3,1-4.7,0.6-7.2c-0.2-1.3-0.6-2.6-1.3-3.9c-0.6-1.3-1.6-2.6-2.8-3.6c-0.6-0.5-1.3-1-2-1.4
				c-0.3-0.2-0.7-0.4-1-0.5l-0.1-0.1c3.1-13.5-4.3,18.3-3.5,15l0.1,0l0.2,0c0.5,0,1,0.1,1.6,0.1c4.1,0.2,7.7,0.5,10.9,0.7
				c12.7,0.8,18,1.1,13.5,0.8l0,0c14.2,0.9,27.7,1.7,40.6,2.4c6.5,0.4,12.8,0.8,18.9,1.1c1.5,0.1,3.1,0.2,4.6,0.3
				c1.6,0.1,3.4,0.2,5.1,0.1c3.4,0,6.8-0.3,10.5-1c0.6-0.1,1.4-0.3,2.1-0.5l2.1-0.6c0.7-0.2,1.3-0.5,2-0.8c0.6-0.3,1.3-0.5,1.9-0.8
				c2.3-1.3,4.5-2.8,6-4.6c0.4-0.4,0.8-0.9,1.2-1.3l0.9-1.4c0.2-0.2,0.3-0.5,0.5-0.7l0.4-0.7l0.7-1.5c0.4-1,0.8-2,1.2-3.1l0.6-1.6
				l0.2-0.4l0.1-0.2c0-0.1,0.1-0.1,0-0.2l-0.6-0.5c-1.6-1.3-3.3-2.7-4.9-4c-0.8-0.7-1.6-1.3-2.4-2l-1.2-1l-0.6-0.5l-0.9-0.4
				c-1.2-0.6-2.4-1.2-3.6-1.7c-1.1-0.5-2.1-0.9-3.2-1.4c-1.3-0.5-2.6-1.1-3.9-1.6c-10.4-4.1-20.6-6.8-30.3-8.7
				c-9.7-1.9-18.9-3.1-27.6-3.9c-8.7-0.7-16.9-1-24.5-1.1c-3.8-0.1-7.5,0-11.1,0c-3.6,0.1-7,0.1-10.3,0.3
				c-6.6,0.3-12.7,0.5-18.4,0.9c-5.6,0.4-10.8,0.8-15.6,1.1c-1.2,0.1-2.4,0.2-3.5,0.2c-1.1,0.1-2.3,0.2-3.3,0.3
				c-2.2,0.2-4.3,0.4-6.2,0.6c-4,0.4-7.5,0.7-10.7,1c-3.2,0.3-6,0.7-8.4,0.9c-9.8,1.1-13.9,1.6-13.9,1.6s-0.9,0.1-2.6,0.3
				c-1.7,0.2-4.2,0.6-7.6,1c-3.3,0.4-7.4,1-12.2,1.7c-4.8,0.7-10.4,1.6-16.6,2.6c-6.2,0.9-13.1,2.2-20.6,3.6
				c-7.5,1.3-15.6,3-24.3,4.7c-2.2,0.4-4.4,0.9-6.6,1.4c-2.2,0.5-4.5,1-6.8,1.5c-4.6,1-9.3,2.1-14.2,3.2c-4.8,1.2-9.8,2.4-14.9,3.7
				c-2.5,0.6-5.1,1.3-7.7,1.9c-2.6,0.7-5.2,1.4-7.9,2.1c-2.7,0.7-5.3,1.4-8,2.2c-2.7,0.7-5.5,1.5-8.2,2.3c-5.5,1.6-11.1,3.3-16.8,5
				c-11.4,3.6-23.2,7.3-35.2,11.5c-3,1-6.1,2.1-9.1,3.1c-3,1.1-6.1,2.2-9.2,3.4c-3.1,1.1-6.2,2.3-9.3,3.4c-3.1,1.1-6.2,2.4-9.4,3.6
				c-3.1,1.2-6.3,2.5-9.5,3.7c-1.2,0.5-2.4,0.9-3.6,1.4l-2.3,1c-0.5,0.3-0.9,0.6-1.4,0.9c-1.8,1.2-3.6,2.4-5.4,3.6
				c-3.6,2.4-7.2,4.8-10.9,7.2c-1.8,1.2-3.7,2.4-5.5,3.6c-0.1,0.1-0.3,0.1-0.3,0.3l0.2,0.4l0.3,0.8l0.7,1.6l1.4,3.2l0.7,1.6
				c0.3,0.2,0.7,0.4,1,0.6l2,1.2c1.3,0.8,2.7,1.5,4,2.3l2,1.2c0.1,0.1,0.6,0.1,1,0.1l1.3,0l2.5,0c3.4,0,6.8-0.1,10.1-0.1
				c1.7,0,3.4,0,5.1-0.1l2.5,0c0.2,0,0.5,0,0.6,0l0.3,0l0.7-0.1c1.9-0.2,3.7-0.4,5.6-0.6c1.9-0.2,3.7-0.4,5.6-0.6
				c1.9-0.3,3.7-0.6,5.6-0.9c14.9-2.3,29.7-6.1,44.2-11.4c14.5-5.3,28.7-12.1,42.2-20.1c13.5-8.1,26.4-17.4,38.5-27.9
				c24.1-21,44.4-46.4,60.6-74.1c16.2-27.6,28.4-57.4,36.9-87.6c1-3.8,2-7.6,3-11.4c0.9-3.8,1.8-7.6,2.7-11.4l0.1-0.4
				c-6.7-2.2,15,4.3-14.9-4.9l-0.3,0.7l-0.5,1.3l-1.1,2.6c-0.7,1.8-1.5,3.5-2.2,5.3c-1.5,3.5-2.9,7-4.3,10.5
				c-5.8,14-11.4,28-16.7,41.9c-5.3,13.9-10.3,27.7-14.8,41.4c-1.1,3.4-2.2,6.9-3.3,10.3c-1.1,3.4-2.1,6.9-3.1,10.3
				c-0.5,1.7-1,3.4-1.5,5.1c-0.5,1.7-0.9,3.4-1.4,5.1c-0.8,2.9-1.5,5.7-2.3,8.6c-4,15.6-6.5,28.6-7.6,35.1
				c-2.1,12-2.6,21.7-2.2,30.8c0.3,4.6,0.6,9,1.3,13.6c0.8,4.6,1.6,9.2,2.7,14.3c1.5-5,2.8-9.5,3.9-13.9c1.2-4.4,2.5-8.5,3.5-12.8
				c2.2-8.6,4.1-17.6,6.2-29.2c1.1-6.3,3.6-18.8,7.5-33.9c0.7-2.8,1.5-5.5,2.2-8.3c0.5-1.7,0.9-3.3,1.4-5c0.5-1.7,1-3.3,1.5-5
				c1-3.3,1.9-6.7,3-10c1.1-3.3,2.2-6.7,3.2-10c4.4-13.4,9.3-27,14.5-40.7c5.2-13.7,10.8-27.5,16.5-41.5c1.4-3.5,2.9-7,4.3-10.5
				c0.7-1.8,1.5-3.5,2.2-5.3l1.1-2.6l0.5-1.3l0.3-0.7c-29.8-9.6-8.3-2.5-15-4.5l-0.1,0.3c-0.9,3.6-1.7,7.3-2.6,11
				c-1,3.6-1.9,7.3-2.9,10.9c-8.2,29.1-19.9,57.6-35.3,84c-15.4,26.3-34.7,50.4-57.4,70.2c-22.7,19.7-48.6,35.2-75.7,45.1
				c-13.6,4.9-27.4,8.5-41.2,10.6c-1.7,0.3-3.5,0.5-5.2,0.8c-1.7,0.2-3.5,0.3-5.2,0.5c-1.7,0.2-3.4,0.3-5.2,0.5l-1,0.1l0,0l-0.1,0
				c-0.1,0-0.2,0-0.2,0c0,0,0,0,0,0c0,0,0,0-0.1,0l0,0l0,0l1.2-0.5c3.1-1.2,6.2-2.4,9.3-3.7c3.1-1.2,6.1-2.5,9.2-3.6
				c3.1-1.1,6.1-2.3,9.2-3.4c3-1.1,6-2.2,9-3.3c3-1.1,6-2.1,9-3.1c11.8-4.2,23.5-7.8,34.7-11.3c5.6-1.7,11.2-3.3,16.6-4.9
				c2.7-0.8,5.4-1.6,8.1-2.3c2.7-0.7,5.3-1.4,7.9-2.2c2.6-0.7,5.2-1.4,7.8-2.1c2.6-0.7,5.1-1.3,7.6-1.9c5-1.2,9.9-2.5,14.7-3.6
				c4.8-1.1,9.5-2.1,14-3.1c2.3-0.5,4.5-1,6.7-1.5c2.2-0.5,4.4-0.9,6.5-1.3c8.5-1.7,16.5-3.4,23.9-4.7c7.4-1.3,14.2-2.6,20.3-3.5
				c6.1-1,11.6-1.9,16.3-2.5c4.8-0.6,8.8-1.2,12.1-1.6c3.3-0.4,5.8-0.8,7.5-1c1.7-0.2,2.6-0.3,2.6-0.3s4.1-0.5,13.7-1.6
				c2.4-0.3,5.2-0.6,8.3-0.9c3.1-0.3,6.6-0.6,10.5-1c1.9-0.2,4-0.4,6.1-0.6c1.1-0.1,2.2-0.2,3.3-0.3c1.1-0.1,2.3-0.2,3.5-0.2
				c4.7-0.3,9.8-0.7,15.4-1.1c5.6-0.4,11.5-0.7,18-0.9c3.2-0.1,6.5-0.2,10-0.3c3.4,0,7-0.1,10.7,0c7.3,0,15.1,0.4,23.3,1
				c8.2,0.7,16.9,1.8,25.8,3.6c9,1.8,18.3,4.3,27.7,8c1.2,0.5,2.3,1,3.5,1.5l0.4,0.2l0.1,0l0,0l0,0l0,0l0,0c0,0,0,0,0,0l0,0l0,0l0,0
				c0,0,0,0-0.1,0c-0.4,0.1-1.1,0.2-1.6,0.3c-0.6,0.1-1.2,0.2-1.8,0.2c-1.2,0.1-2.5,0.2-3.8,0.2c-1.3,0-2.6,0-4-0.1
				c-1.5-0.1-3.1-0.2-4.6-0.3c-6.2-0.4-12.5-0.8-18.9-1.1c-12.9-0.8-26.5-1.6-40.6-2.5h0c4.5,0.3-0.8-0.1-13.5-0.8
				c-3.2-0.2-6.8-0.4-10.9-0.7c-0.5,0-1-0.1-1.6-0.1l-0.2,0l-0.1,0c0.4-2.5-3.9,22.1-2.1,11.7l0,0c0,0,0-0.1,0.1-0.1l0-0.1l0,0
				c0,0,0,0,0,0c-0.1,0.1-0.3,0.3-0.7,0.5c-0.4,0.2-0.9,0.4-1.3,0.4c-1,0.2-1.4,0-1,0.1c0.2,0.1,0.5,0.2,0.9,0.4
				c0.2,0.1,0.3,0.2,0.5,0.4c-0.7-0.7,1.7,1.6-1.6-1.5l0,0l0,0l0,0c0,0,0,0,0,0c-0.1,0.1-0.4,0.3-1,0.5c-0.6,0.2-1.4,0.4-2.4,0.6
				c-1,0.2-2.3,0.4-3.6,0.6c-1.3,0.2-2.7,0.4-4.1,0.5c-5.5,0.7-11.4,1.3-17.7,1.8c-25,1.9-55.6,1.2-88.4-5.3c-2-0.4-4.1-0.8-6.2-1.3
				c-2.1-0.5-4.1-0.9-6.2-1.4c-2.1-0.5-4.2-1-6.3-1.6c-2.1-0.5-4.2-1.1-6.4-1.7c-4.3-1.2-8.9-2.4-13.8-3.3
				c-4.9-0.9-10.3-1.4-15.7-0.8c-2.7,0.2-5.4,0.7-7.9,1.3c-2.5,0.6-5,1.3-7.4,2.1c-4.8,1.6-9.2,3.4-13.5,5c-2.1,0.8-4.2,1.5-6.3,2.2
				l-1.2,0.4l0,0l0,0c0,0,0.1,0,0,0.1l0,0l0,0c0,0,0,0.1,0.1-0.1c0.3-0.3,0.6-0.6,0.9-0.9c0.6-0.6,1.3-1.1,2.1-1.5
				c0.2-0.1,0.4-0.2,0.6-0.3l0.3-0.1l0.1-0.1c2.1,2.5-18.1-22.3-9.6-11.8l-0.1,0.1l-1.3,1.7c-0.8,1.1-1.7,2.2-2.5,3.3
				c-0.9,1.1-1.8,2.2-2.6,3.3c-1.7,2.2-3.6,4.3-5.5,6.4c-3.8,4.2-7.7,8.3-11.9,12.2c-4.1,4-8.5,7.7-13.1,11.2
				c-2.3,1.7-4.6,3.5-7,5.1c-2.4,1.7-4.8,3.2-7.3,4.8c-5,3-10.1,5.8-15.4,8.2c-2.6,1.3-5.4,2.3-8.1,3.4c-1.4,0.5-2.8,1-4.1,1.4
				l-2.1,0.7l-2.1,0.6l-4.2,1.2l-4.3,1c-0.7,0.2-1.4,0.3-2.1,0.5l-2.2,0.4c-1.4,0.2-2.9,0.5-4.3,0.7c-2.9,0.3-5.8,0.7-8.7,0.8
				c-1.5,0.1-2.9,0.2-4.4,0.2l-4.4,0c-5.9-0.2-11.7-0.5-17.4-1.6l-2.2-0.4c-0.7-0.1-1.4-0.3-2.1-0.5l-4.3-1l-4.2-1.2l-2.1-0.6
				l-2-0.8c-5.5-1.9-10.6-4.5-15.6-7.3l-3.6-2.3c-0.3-0.2-0.6-0.4-0.9-0.6l-0.9-0.6l-1.7-1.3c-2.3-1.6-4.5-3.4-6.6-5.3
				c-4.1-3.8-7.7-7.9-10.3-12.4c-1.3-2.2-2.5-4.5-3.3-6.9c-0.9-2.4-1.5-4.7-1.8-7.3c-0.7-5-0.5-10.4,0.2-15.7
				c1.5-10.7,5.4-20.9,10.9-29.9c2.7-4.5,5.9-8.7,9.3-12.6c0.6-0.7,1.2-1.3,1.8-2c1-1,2-2.1,3-3c1-0.9,1.9-1.9,2.9-2.7
				c3.8-3.4,7.2-5.9,9.6-7.5c9.1-6.2,16.8-10.2,24.5-13.8c3.8-1.8,7.7-3.5,11.8-4.9C138.5,197.8,142.9,196.4,148,195.4z"/>
		</g>
	</g>
</g>
</svg>
