<svg id="Social_Icons" data-name="Social Icons" xmlns="http://www.w3.org/2000/svg" viewBox="0 0 128 128"><defs><style>.cls-1{fill:none;}.cls-2{fill:#deb887;fill-rule:evenodd;}</style></defs><rect class="cls-1" width="128" height="128"/><path class="cls-2" d="M27.6,64a39,39,0,0,1,1.9-11.9L7.9,35.6A64.38,64.38,0,0,0,1.4,64,63.7,63.7,0,0,0,8,92.3L29.6,75.8a35.65,35.65,0,0,1-2-11.8"/><path class="cls-2" d="M65.5,26.2a37.31,37.31,0,0,1,23.6,8.4L107.7,16A64.11,64.11,0,0,0,7.9,35.6L29.5,52.1a37.73,37.73,0,0,1,36-25.9"/><path class="cls-2" d="M65.5,101.8A37.73,37.73,0,0,1,29.6,75.9L7.9,92.3A64,64,0,0,0,65.5,128a61.28,61.28,0,0,0,41.8-16L86.7,96.2c-5.7,3.7-13,5.6-21.2,5.6"/><path class="cls-2" d="M126.6,64a50.54,50.54,0,0,0-1.5-11.6H65.5V77.1H99.9A28.72,28.72,0,0,1,86.8,96.2L107.3,112c11.7-10.9,19.3-27.1,19.3-48"/></svg>