<svg id="Social_Icons" data-name="Social Icons" xmlns="http://www.w3.org/2000/svg" viewBox="0 0 128 128"><defs><style>.cls-1{fill:none;}.cls-2{fill:#deb887;fill-rule:evenodd;}</style></defs><rect class="cls-1" width="128" height="128"/><path id="Instagram" class="cls-2" d="M105.8,29.8a7.7,7.7,0,1,1-7.7-7.7A7.7,7.7,0,0,1,105.8,29.8ZM64,85.3A21.3,21.3,0,1,1,85.3,64,21.32,21.32,0,0,1,64,85.3Zm0-54.2A32.9,32.9,0,1,0,96.9,64,32.86,32.86,0,0,0,64,31.1Zm0-19.6c17.1,0,19.1.1,25.9.4,6.2.3,9.6,1.3,11.9,2.2a20.14,20.14,0,0,1,7.4,4.8,20.59,20.59,0,0,1,4.8,7.4c.9,2.3,1.9,5.6,2.2,11.9.3,6.7.4,8.8.4,25.9s-.1,19.1-.4,25.9c-.3,6.2-1.3,9.6-2.2,11.9a20.14,20.14,0,0,1-4.8,7.4,20.59,20.59,0,0,1-7.4,4.8c-2.3.9-5.6,1.9-11.9,2.2-6.7.3-8.8.4-25.9.4s-19.1-.1-25.9-.4c-6.2-.3-9.6-1.3-11.9-2.2a20.14,20.14,0,0,1-7.4-4.8,20.59,20.59,0,0,1-4.8-7.4c-.9-2.3-1.9-5.6-2.2-11.9-.3-6.7-.4-8.8-.4-25.9s.1-19.1.4-25.9c.3-6.2,1.3-9.6,2.2-11.9a20.14,20.14,0,0,1,4.8-7.4,20.59,20.59,0,0,1,7.4-4.8c2.3-.9,5.6-1.9,11.9-2.2C44.9,11.6,46.9,11.5,64,11.5ZM64,0C46.6,0,44.4.1,37.6.4a45.64,45.64,0,0,0-15.5,3,29.93,29.93,0,0,0-11.3,7.4A32,32,0,0,0,3.4,22.1a46.17,46.17,0,0,0-3,15.5C.1,44.4,0,46.6,0,64S.1,83.6.4,90.4a45.64,45.64,0,0,0,3,15.5,29.93,29.93,0,0,0,7.4,11.3,33.47,33.47,0,0,0,11.3,7.4,46.17,46.17,0,0,0,15.5,3c6.8.3,9,.4,26.4.4s19.6-.1,26.4-.4a45.64,45.64,0,0,0,15.5-3,29.93,29.93,0,0,0,11.3-7.4,32,32,0,0,0,7.4-11.3,46.17,46.17,0,0,0,3-15.5c.3-6.8.4-9,.4-26.4s-.1-19.6-.4-26.4a45.64,45.64,0,0,0-3-15.5,29.93,29.93,0,0,0-7.4-11.3,32,32,0,0,0-11.3-7.4A46.17,46.17,0,0,0,90.4.4C83.6.1,81.4,0,64,0Z"/></svg>