<svg id="Layer_1" data-name="Layer 1" xmlns="http://www.w3.org/2000/svg" viewBox="0 0 86.2 56.1"><defs><style>.cls-1{fill:#deb887;}</style></defs><path class="cls-1" d="M93.1,76.2a4.33,4.33,0,0,0,.1-.5V22.6a.9.9,0,0,0-.1-.5V22c-.1-.2-.2-.3-.3-.5h0c-.1-.1-.3-.2-.4-.3h0a.9.9,0,0,0-.5-.1H8.4a4.33,4.33,0,0,0-.5.1h0a1.38,1.38,0,0,0-.4.3h0a2.19,2.19,0,0,0-.3.5v.1a.65.65,0,0,0-.2.5V75.7a.9.9,0,0,0,.1.5v.1c.1.2.2.3.3.5h0c0,.1.1.1.2.1l.1.1c.1,0,.1.1.2.1H8a1.27,1.27,0,0,0,.6.1H91.8a1.27,1.27,0,0,0,.6-.1h.1c.1,0,.1-.1.2-.1a.1.1,0,0,0,.1-.1.1.1,0,0,0,.1-.1h0c0-.2.1-.3.2-.6ZM10,26,35.2,49.1,10,72.3ZM61.7,48c-.1.1-.2.1-.3.2a.1.1,0,0,1-.1.1L50.1,58.6,12.3,24.1H87.8ZM37.4,51.1,49,61.7a1.45,1.45,0,0,0,2,0L62.5,51.2l25.2,23H12.3Zm27.4-1.9L90.2,26V72.3Z" transform="translate(-7 -21.1)"/></svg>