<svg id="Layer_1" data-name="Layer 1" xmlns="http://www.w3.org/2000/svg" viewBox="0 0 50 50"><defs><style>.cls-1,.cls-2{fill:none;}.cls-2{stroke:#deb887;stroke-miterlimit:10;stroke-width:2px;}</style></defs><rect class="cls-1" width="50" height="50"/><path class="cls-2" d="M30.2,35.3s4-2.3,5.1-2.9a2.92,2.92,0,0,1,2.8-.3c1,.6,9.5,6.2,10.2,6.7a2.37,2.37,0,0,1,.1,3.3c-1,1.4-5.5,6.9-7.4,6.9s-9.8-.2-24.8-15.2S1.1,10.9,1,9,6.5,2.6,7.9,1.6a2.37,2.37,0,0,1,3.3.1c.6.8,6.1,9.2,6.7,10.2a2.9,2.9,0,0,1-.3,2.8c-.6,1.1-2.9,5.1-2.9,5.1s1.6,2.8,7.2,8.3S30.2,35.3,30.2,35.3Z" transform="translate(0 0)"/></svg>