<svg id="Layer_1" data-name="Layer 1" xmlns="http://www.w3.org/2000/svg" viewBox="0 0 24 24"><defs><style>.cls-1{fill:#82469b;}.cls-2{fill:#fff;opacity:0.2;}.cls-2,.cls-3{isolation:isolate;}.cls-3{fill:#010101;opacity:0.1;}.cls-4{fill:#deb887;}</style></defs><path class="cls-1" d="M2.2,0,0,4.4V21H6v3H8.7l3-3h6L24,14.7V0ZM22,13.7,17.7,18h-6L8,21.7V18H3V2H22Z"/><polygon class="cls-2" points="2.2 0 0 4.4 0 4.6 2.2 0.3 24 0.3 24 0 2.2 0"/><rect class="cls-3" y="20.8" width="6" height="0.3"/><polygon class="cls-3" points="11.7 20.8 8.7 23.8 6 23.8 6 24 8.7 24 11.7 21 17.7 21 24 14.7 24 14.5 17.7 20.8 11.7 20.8"/><path class="cls-1" d="M9.5,13a.47.47,0,0,1-.5-.5v-6a.5.5,0,0,1,1,0v6A.47.47,0,0,1,9.5,13Z"/><path class="cls-1" d="M15.5,13a.47.47,0,0,1-.5-.5v-6a.5.5,0,0,1,1,0v6A.47.47,0,0,1,15.5,13Z"/><path class="cls-4" d="M2.2,0,0,4.4V21H6v3H8.7l3-3h6L24,14.7V0ZM22,13.7,17.7,18h-6L8,21.7V18H3V2H22ZM9.5,13a.47.47,0,0,0,.5-.5v-6a.5.5,0,0,0-1,0v6A.47.47,0,0,0,9.5,13Zm6,0a.47.47,0,0,0,.5-.5v-6a.5.5,0,0,0-1,0v6A.47.47,0,0,0,15.5,13Z"/></svg>