<svg id="Layer_1" data-name="Layer 1" xmlns="http://www.w3.org/2000/svg" viewBox="0 0 1080.1 877.5"><defs><style>.cls-1{fill:none;}.cls-2{fill:#deb887;}</style></defs><rect class="cls-1" x="118.2" y="16.8" width="843.8" height="843.8"/><path class="cls-2" d="M759.6,978.8c407.5,0,630.5-337.6,630.5-630.5,0-9.6,0-19.1-.6-28.6A449.63,449.63,0,0,0,1500,205a442.46,442.46,0,0,1-127.3,34.9,222.55,222.55,0,0,0,97.4-122.6,444.93,444.93,0,0,1-140.7,53.8,221.65,221.65,0,0,0-161.6-69.8C1046.1,101.3,946,201.4,946,323.1a221.87,221.87,0,0,0,5.7,50.1A629.56,629.56,0,0,1,495,141.7c-58.5,100.7-28.2,231.1,68.6,295.8A220.23,220.23,0,0,1,463,409.8v2.8c0,105.1,74.8,196.4,177.8,217.2a220.94,220.94,0,0,1-100,3.8,222.47,222.47,0,0,0,207,153.9,444.53,444.53,0,0,1-327.9,91.8,627.9,627.9,0,0,0,339.6,99.4" transform="translate(-419.9 -101.3)"/></svg>