<svg id="Layer_1" data-name="Layer 1" xmlns="http://www.w3.org/2000/svg" viewBox="0 0 1080 1085.2"><defs><style>.cls-1{fill:#deb887;fill-rule:evenodd;}</style></defs><path id="WhatsApp-Logo" class="cls-1" d="M1207.4,647.7c-13.4-6.7-79.5-39.2-91.8-43.7s-21.3-6.7-30.2,6.7-34.7,43.7-42.5,52.7-15.7,10.1-29.1,3.4-56.7-20.9-108.1-66.7c-39.9-35.6-66.9-79.6-74.7-93.1s-.8-20.7,5.9-27.4c6-6,13.4-15.7,20.2-23.5s9-13.5,13.4-22.4,2.2-16.8-1.1-23.5-30.2-72.9-41.4-99.8c-10.9-26.2-22-22.6-30.2-23.1-7.8-.4-16.8-.5-25.8-.5s-23.5,3.4-35.8,16.8-47,46-47,112.1,48.1,130,54.9,139,94.7,144.7,229.5,202.9a791,791,0,0,0,76.6,28.3c32.2,10.2,61.5,8.8,84.6,5.3,25.8-3.9,79.5-32.5,90.7-63.9s11.2-58.3,7.8-63.9-12.4-9-25.9-15.7M962.3,982.5h-.2a446.18,446.18,0,0,1-227.5-62.3l-16.3-9.7L549.1,954.9,594.3,790l-10.7-17a445.74,445.74,0,0,1-68.3-237.9c.1-246.4,200.6-446.9,447.1-446.9,119.4,0,231.6,46.6,316,131.1s130.8,196.8,130.8,316.2c-.1,246.4-200.6,447-446.9,447m380.3-827.4C1241.1,53.5,1106.1-2.5,962.3-2.6c-296.4,0-537.6,241.2-537.7,537.7a536.44,536.44,0,0,0,71.8,268.8L420,1082.6l285.1-74.8a538.54,538.54,0,0,0,257,65.5h.2c296.4,0,537.6-241.2,537.7-537.7.1-143.7-55.8-278.8-157.4-380.5" transform="translate(-420 2.6)"/></svg>