<svg id="Social_Icons" data-name="Social Icons" xmlns="http://www.w3.org/2000/svg" viewBox="0 0 128 128"><defs><style>.cls-1{fill:none;}.cls-2{fill:#deb887;fill-rule:evenodd;}</style></defs><rect class="cls-1" width="128" height="128"/><path id="Youtube" class="cls-2" d="M126.7,38.2s-1.3-8.9-5.1-12.8c-4.9-5.1-10.3-5.2-12.8-5.5C90.9,18.7,64,18.7,64,18.7h0s-26.9,0-44.8,1.3c-2.5.3-8,.3-12.8,5.5C2.6,29.4,1.3,38.3,1.3,38.3A192.19,192.19,0,0,0,0,59.1v9.8A195.26,195.26,0,0,0,1.3,89.8s1.2,8.9,5.1,12.8c4.9,5.1,11.3,5,14.1,5.5,10.2,1,43.5,1.3,43.5,1.3s26.9,0,44.8-1.3c2.5-.3,8-.3,12.8-5.5,3.8-3.9,5.1-12.8,5.1-12.8A192.81,192.81,0,0,0,128,68.9V59.1A195.26,195.26,0,0,0,126.7,38.2ZM50.8,80.7V44.5L85.4,62.7Z"/></svg>